<mxfile host="app.diagrams.net" modified="2023-01-14T21:46:37.565Z" agent="5.0 (Windows)" version="20.8.5" etag="GTEgt6iEwB3z4trRWfAh" type="github">
  <diagram id="yHtcUve_vpdM3ZnGvHVe" name="Page-1">
    <mxGraphModel dx="1434" dy="774" grid="1" gridSize="10" guides="1" tooltips="1" connect="1" arrows="1" fold="1" page="1" pageScale="1" pageWidth="850" pageHeight="1100" math="0" shadow="0">
      <root>
        <mxCell id="0" />
        <mxCell id="1" parent="0" />
        <mxCell id="w8wEfn31qeQWrygBjMDF-1" value="تسجيل الدخول" style="rounded=0;whiteSpace=wrap;html=1;" vertex="1" parent="1">
          <mxGeometry x="365" width="120" height="60" as="geometry" />
        </mxCell>
      </root>
    </mxGraphModel>
  </diagram>
</mxfile>
